<?xml version="1.0" encoding="UTF-8" standalone="no"?>
<svg
   xmlns:dc="http://purl.org/dc/elements/1.1/"
   xmlns:cc="http://creativecommons.org/ns#"
   xmlns:rdf="http://www.w3.org/1999/02/22-rdf-syntax-ns#"
   xmlns:svg="http://www.w3.org/2000/svg"
   xmlns="http://www.w3.org/2000/svg"
   version="1.1"
   id="svg2"
   width="192.716"
   height="256"
   viewBox="0 0 192.716 256">
  <metadata
     id="metadata8">
    <rdf:RDF>
      <cc:Work
         rdf:about="">
        <dc:format>image/svg+xml</dc:format>
        <dc:type
           rdf:resource="http://purl.org/dc/dcmitype/StillImage" />
        <dc:title></dc:title>
      </cc:Work>
    </rdf:RDF>
  </metadata>
  <defs
     id="defs6" />
  <path
     style="fill:#000000;stroke-width:0.80114126"
     d="M -3.6064002,131.57844 -3.5846892,3.395843 -3.1745129,98.73165 c 0.2261542,52.56409 0.7257939,95.82527 1.1136665,96.4268 0.4383845,0.67986 0.3480077,1.3107 -0.2398217,1.674 -0.6167105,0.38115 -0.8602815,2.49983 -0.7034901,6.11928 l 0.2398216,5.53627 1.509238,-2.80399 c 0.83008647,-1.5422 2.9030395,-4.32813 4.6065622,-6.19095 1.7035307,-1.86282 3.0973242,-3.74284 3.0973242,-4.1778 0,-0.99285 3.175756,-2.74537 3.8155472,-2.10558 0.260571,0.26058 -0.08064,0.92068 -0.7582479,1.46691 -0.6776053,0.54623 -2.359377,2.6741 -3.7372759,4.72859 -1.3778989,2.05449 -2.7800002,3.85706 -3.1157826,4.00571 -0.3357903,0.14864 -1.78218674,2.47908 -3.21422674,5.17875 l -2.60370906,4.90848 v 13.10288 13.10288 l 1.9420545,-2.85799 c 1.92732155,-2.8363 6.069358,-6.17605 6.069358,-4.89375 0,0.3677 -0.7453417,1.46857 -1.6563114,2.44638 -2.1882132,2.34878 -1.718448,4.46539 1.0623053,4.78635 1.2079609,0.13942 2.1962886,-0.0863 2.1962886,-0.50166 0,-0.41532 1.8926963,-0.94014 4.2059912,-1.16626 7.517645,-0.7348 20.166889,-3.1054 22.753317,-4.26422 1.388474,-0.62208 2.920657,-1.13106 3.404851,-1.13106 0.484193,0 0.88035,-0.28175 0.88035,-0.62609 0,-1.09935 10.030601,-5.9744 11.655596,-5.66483 0.90331,0.17208 2.504463,2.05087 3.792827,4.45048 1.226274,2.28397 2.899939,4.36544 3.719258,4.62548 0.819319,0.26004 1.936502,1.55156 2.482632,2.87003 0.841479,2.0315 0.793507,2.61763 -0.314408,3.84186 -0.719056,0.79455 -1.294211,2.31754 -1.278124,3.38441 0.02387,1.58452 0.32161,1.3162 1.625563,-1.46508 0.877971,-1.87267 2.143902,-3.40485 2.813168,-3.40485 1.82274,0 5.16112,4.15727 4.9418,6.154 -0.105583,0.96125 0.421144,2.4033 1.170499,3.20456 0.749356,0.80127 2.038432,2.17787 2.864617,3.05913 0.826185,0.88125 2.465224,2.41105 3.642324,3.39955 1.177093,0.9885 2.140169,2.16017 2.140169,2.60371 0,1.16907 -4.598254,0.99248 -5.077409,-0.19499 -0.323268,-0.80114 -0.416737,-0.80114 -0.467338,0 -0.09386,1.48618 -4.870089,1.29573 -4.870089,-0.19418 0,-1.55842 -3.190457,-5.21352 -4.550755,-5.21352 -0.581476,0 -1.057234,-0.54077 -1.057234,-1.20171 0,-0.66094 -0.381792,-1.20171 -0.848425,-1.20171 -0.466632,0 -0.650855,-0.31967 -0.409391,-0.71037 0.241464,-0.3907 -0.12525,-1.17868 -0.814921,-1.75105 -1.022312,-0.84845 -1.371842,-0.84993 -1.892143,-0.008 -0.482712,0.78104 -1.037422,0.81896 -2.276787,0.15567 -0.90122,-0.48231 -2.697611,-0.66513 -3.991991,-0.40625 -1.896117,0.37922 -2.959616,-0.0502 -5.473285,-2.21006 -1.715932,-1.4744 -3.242195,-2.95755 -3.391696,-3.29589 -0.149501,-0.33834 -0.690271,-1.05937 -1.201712,-1.60228 -0.51144,-0.54289 -0.965944,-1.43773 -1.010006,-1.98852 -0.177245,-2.21552 -0.382858,-2.58073 -1.914504,-3.40044 -1.228814,-0.65764 -2.411867,-0.48054 -5.163459,0.77296 -1.963181,0.89433 -3.970993,1.62606 -4.461804,1.62606 -0.490803,0 -0.669562,0.36051 -0.397238,0.80114 0.272324,0.44063 -0.166958,0.80114 -0.976175,0.80114 -0.809216,0 -2.214026,0.52023 -3.121807,1.15605 -1.018018,0.71305 -3.619083,1.1589 -6.787669,1.16347 -5.472444,0.008 -15.1904793,0.72284 -18.1277836,1.33366 -1.6710445,0.34749 -1.7897816,0.84787 -2.0341858,8.57247 -0.1427473,4.5119 -0.2497718,-49.47872 -0.2378187,-119.97915 z M 179.05468,258.61853 c -0.77559,-0.75609 -13.70895,-5.51599 -16.98419,-6.25074 -0.99142,-0.22241 -1.80257,-0.63486 -1.80257,-0.91656 0,-0.2817 -1.17167,-0.98648 -2.60371,-1.56619 -11.04904,-4.47276 -11.62341,-5.06572 -8.2117,-8.47742 1.10157,-1.10157 2.00285,-2.71078 2.00285,-3.57603 0,-2.12582 0.8145,-4.10764 1.68819,-4.10764 0.39359,0 2.65361,1.8927 5.02226,4.20599 6.25659,6.11036 12.87292,9.8773 20.03802,11.40843 1.85557,0.39652 10.90517,8.47016 10.90517,9.72909 0,0.65545 -9.34968,0.23798 -10.05432,-0.44893 z m -41.21872,-7.26947 c 0,-2.27011 1.01838,-3.19519 1.91693,-1.74131 0.57809,0.93536 -0.35824,4.14473 -1.20922,4.14473 -0.38924,0 -0.70771,-1.08154 -0.70771,-2.40342 z M 73.994257,233.40417 c -1.700999,-0.79444 -2.724361,-2.67791 -2.945821,-5.42173 -0.05928,-0.73438 -0.353319,-1.58078 -0.653427,-1.88089 -0.300115,-0.30012 -0.350098,-1.05527 -0.111086,-1.67814 0.317132,-0.82642 0.03157,-0.98342 -1.056625,-0.58096 -0.82016,0.30333 -1.756062,0.93831 -2.079787,1.41108 -0.331848,0.48464 -0.593942,0.0733 -0.600856,-0.94299 -0.0072,-1.06274 -0.505488,-1.80257 -1.213977,-1.80257 -0.660942,0 -1.201712,-0.33622 -1.201712,-0.74715 0,-0.41094 -0.630899,-0.95424 -1.401997,-1.20734 -1.348617,-0.44267 -4.351727,-5.93866 -5.477988,-10.02526 -0.29792,-1.08102 -1.03489,-2.4587 -1.637693,-3.06151 -0.60281,-0.60281 -1.096017,-1.60007 -1.096017,-2.21613 0,-1.64506 -3.05681,-6.96345 -4.917525,-8.55576 -1.423764,-1.21838 -1.580524,-2.17153 -1.350852,-8.21356 0.265001,-6.97164 -0.366026,-8.90967 -1.376577,-4.22778 -0.918028,4.25318 -3.25857,8.11837 -5.821525,9.61369 -2.942512,1.71678 -3.667881,1.76413 -3.067779,0.20029 0.253634,-0.66094 0.111944,-1.20171 -0.314856,-1.20171 -1.38285,0 -0.821338,-1.98969 0.857373,-3.03806 0.898352,-0.56103 1.417844,-1.36878 1.154429,-1.795 -0.263415,-0.42621 -0.135714,-0.77493 0.283772,-0.77493 0.419494,0 0.989794,-0.59177 1.267333,-1.31503 0.388842,-1.0133 0.264473,-1.11572 -0.542012,-0.4464 -0.995818,0.82646 -3.209396,0.15328 -3.064173,-0.93185 0.290085,-2.16756 -0.07395,-2.72748 -1.526174,-2.34771 -1.181307,0.30892 -1.479419,0.8759 -1.150214,2.18759 0.566583,2.25741 -1.757913,4.57813 -2.541156,2.53702 -0.273943,-0.71388 -0.252103,-2.64718 0.04855,-4.29622 0.499167,-2.73803 0.446348,-2.86392 -0.608659,-1.45049 -0.932457,1.24925 -2.102475,1.53645 -6.06657,1.48918 -3.854892,-0.046 -4.911301,0.1996 -4.911301,1.14167 0,0.82391 -0.439602,1.02335 -1.401997,0.63609 -0.771098,-0.31027 -3.024308,-1.0685 -5.007133,-1.68495 -6.3855681,-1.98523 -6.4725481,-2.17889 -3.204565,-7.13545 0.871546,-1.32188 1.83882,-2.94419 2.149486,-3.60514 1.449233,-3.08322 4.26905,-4.27993 4.247371,-1.80256 -0.01226,1.39778 -1.554438,4.43428 -1.577744,3.10647 -0.0064,-0.38443 -0.553036,-0.25016 -1.213977,0.29838 -1.475181,1.22429 -1.663354,2.95083 -0.200285,1.83771 0.550784,-0.41904 2.716149,-0.60695 4.811926,-0.41759 3.215549,0.29054 3.885824,0.64437 4.292844,2.26609 0.564139,2.2477 1.910922,2.58079 1.910922,0.47261 0,-0.79704 0.559437,-2.14896 1.243195,-3.00428 1.208201,-1.51134 1.229231,-1.50438 0.747152,0.24745 -0.773934,2.81242 1.698652,2.26145 2.696449,-0.60085 0.460817,-1.32189 1.397367,-2.40343 2.081229,-2.40343 0.683862,0 1.243387,-0.15077 1.243387,-0.33504 0,-0.18428 0.225914,-0.92378 0.502036,-1.64334 0.439337,-1.1449 -0.0064,-1.24081 -3.570775,-0.76801 l -4.072818,0.54027 0.471039,-2.90264 c 0.442222,-2.72512 -0.617744,-4.09157 -1.61462,-2.08148 -0.223983,0.45164 -0.30634,0.36152 -0.183013,-0.20028 0.132165,-0.60204 1.176596,-0.93853 2.543624,-0.81948 l 2.319392,0.202 -2.279952,-1.26925 c -2.036157,-1.13353 -2.223592,-1.56966 -1.752873,-4.07876 0.653843,-3.48533 2.067577,-6.67252 2.959704,-6.67252 0.369903,0 0.67255,-1.08154 0.67255,-2.40342 0,-1.32188 -0.360513,-2.40343 -0.801141,-2.40343 -0.440628,0 -0.801141,-1.28307 -0.801141,-2.85127 0,-1.56821 0.329717,-2.64749 0.732715,-2.39844 1.158331,0.7159 1.524708,-1.47006 0.39574,-2.36113 -0.558267,-0.44063 -1.39288,-3.68525 -1.85469,-7.21027 -0.46181,-3.52502 -1.425503,-10.37478 -2.141539,-15.22168 -1.860242,-12.59212 -1.900074,-34.15639 -0.08806,-47.6679 1.504095,-11.21547 2.620789,-16.02283 3.72191,-16.02283 0.352999,0 1.08082,-1.05986 1.617384,-2.35524 0.906035,-2.18735 5.515177,-6.93616 10.660234,-10.98326 1.19789,-0.94227 2.177991,-2.0858 2.177991,-2.54119 0,-0.974919 3.854947,-4.14884 5.03905,-4.14884 0.449496,0 0.220626,0.659286 -0.508605,1.46508 -0.729239,0.805794 -1.32588,1.861087 -1.32588,2.3451 0,0.48401 -1.310844,1.96052 -2.912974,3.28113 -1.925824,1.58743 -2.74882,2.82891 -2.428572,3.66347 0.699909,1.82392 2.938122,1.56496 2.938122,-0.33994 0,-1.76573 1.266804,-2.1849 1.815883,-0.60086 0.19092,0.55079 0.604292,-0.14373 0.91862,-1.54337 0.31432,-1.39964 1.449954,-3.12039 2.523627,-3.82389 1.84603,-1.209567 1.952141,-1.191365 1.952141,0.33487 0,0.88768 -0.721027,2.06425 -1.602282,2.6146 -0.881256,0.55036 -1.602283,1.79393 -1.602283,2.76351 0,2.02817 -1.269112,3.1555 -1.871178,1.66213 -0.223165,-0.55353 -0.43421,-0.19527 -0.469004,0.79615 -0.03477,0.99141 -0.53908,1.80256 -1.12066,1.80256 -0.581581,0 -2.282267,1.09354 -3.779304,2.4301 l -2.721877,2.43009 2.777869,-0.22696 c 2.620757,-0.21411 2.764114,-0.0978 2.534555,2.0573 -0.170668,1.60217 0.06858,2.17416 0.801141,1.91557 0.637155,-0.22491 0.980324,-1.46627 0.879997,-3.18324 -0.105438,-1.80448 0.325825,-3.2557 1.201712,-4.0438 0.751399,-0.67608 3.065167,-2.88526 5.141709,-4.90929 2.076534,-2.02402 4.104423,-3.68004 4.506403,-3.68004 0.401989,0 0.95295,-1.11032 1.22436,-2.46738 0.908519,-4.542577 2.970905,-7.948337 4.80523,-7.935187 1.367404,0.0098 1.47446,0.162037 0.532775,0.757581 -0.64818,0.409922 -0.901276,1.022549 -0.562434,1.361393 1.003606,1.003606 3.244086,-0.867928 4.722744,-3.945044 0.758737,-1.578943 2.110663,-3.10286 3.00428,-3.386482 0.893617,-0.283624 1.624762,-0.851898 1.624762,-1.262833 0,-0.410934 0.721028,-0.747154 1.602283,-0.747154 1.91492,0 2.067521,1.019975 0.364111,2.433682 -0.680994,0.565175 -1.056826,1.500169 -0.835182,2.077765 0.221644,0.577595 -0.149253,1.602412 -0.824206,2.277371 -1.10217,1.102169 -1.083191,1.282458 0.186281,1.7696 0.816916,0.31348 1.546459,0.143447 1.728567,-0.402872 0.173302,-0.519901 0.945987,-0.945275 1.717086,-0.945275 1.933145,0 2.616248,-0.861553 1.627598,-2.052794 -0.455777,-0.549179 -0.593822,-1.934275 -0.306765,-3.077992 0.449993,-1.792907 0.951573,-2.079485 3.639635,-2.079485 2.967291,0 4.046933,0.933433 2.316572,2.002853 -1.595129,0.985845 -0.750782,2.103485 1.401997,1.855781 1.36166,-0.156676 2.505193,-0.94198 2.993969,-2.056066 0.434955,-0.991412 1.516496,-1.827407 2.403424,-1.857767 4.941679,-0.169152 9.044996,-1.230445 10.846641,-2.805407 1.64399,-1.437131 7.99049,-2.444302 7.99049,-1.268066 0,1.040059 -4.151,3.327531 -6.03837,3.327531 -0.72109,0 -1.71932,1.08154 -2.218273,2.403424 -1.029194,2.726641 -3.812856,3.266638 -5.929279,1.150209 -1.686266,-1.68626 -3.359025,-0.180256 -1.836904,1.653785 0.798105,0.961658 0.828732,1.494575 0.126276,2.197035 -0.510079,0.510079 -0.927418,1.739634 -0.927418,2.732345 0,4.837199 -4.04618,7.977499 -5.261407,4.083459 -0.3094,-0.991412 -0.944097,-2.047135 -1.410441,-2.346052 -0.589888,-0.378109 -0.562265,-1.170378 0.09081,-2.603709 0.771612,-1.693506 0.733405,-2.060225 -0.214625,-2.060225 -1.637878,0 -4.540773,3.337374 -4.039395,4.643957 0.231122,0.602293 0.420223,1.966877 0.420223,3.032409 0,1.40323 0.441725,1.93733 1.602283,1.93733 0.881255,0 1.602282,0.49872 1.602282,1.10827 0,0.60955 -0.721027,1.29683 -1.602282,1.52728 -1.12457,0.29408 -1.605544,1.09822 -1.613219,2.69715 -0.02019,4.19806 -0.862869,5.98678 -2.697202,5.72503 -1.078914,-0.15396 -1.795135,-0.92744 -1.964135,-2.12115 -0.199044,-1.40585 -0.652818,-1.77766 -1.802576,-1.477 -1.798138,0.47023 -1.81086,0.42809 -0.64403,-2.13282 0.490892,-1.0774 1.662561,-2.33176 2.603709,-2.78747 l 1.711176,-0.82857 -1.80257,-0.0542 c -1.456715,-0.0438 -1.802568,-0.51536 -1.802568,-2.45764 0,-1.321884 -0.331031,-2.403425 -0.735623,-2.403425 -0.404585,0 -1.263809,-0.202687 -1.909384,-0.450416 -0.86339,-0.331316 -1.261061,0.297366 -1.503911,2.377551 -0.311051,2.66434 -0.215595,2.79922 1.649678,2.33107 l 1.979837,-0.49691 -1.822477,2.94882 c -1.460488,2.36312 -1.629825,3.18095 -0.85255,4.11751 0.550464,0.66327 0.751406,2.03935 0.46463,3.18194 -0.414711,1.65234 -0.215315,2.01326 1.112256,2.01326 1.911395,0 2.090506,1.01357 0.423572,2.397 -0.755549,0.62705 -1.017834,1.69267 -0.71429,2.90209 0.829798,3.30618 -0.279134,5.91689 -2.513276,5.91689 -1.586004,0 -1.987592,-0.40468 -1.987592,-2.00286 0,-1.24622 -0.453982,-2.00285 -1.201711,-2.00285 -1.592573,0 -1.53143,-2.3135 0.109051,-4.12621 1.214194,-1.34167 1.212615,-1.48603 -0.02139,-1.95956 -0.865801,-0.33224 -2.025797,0.23727 -3.313616,1.62685 -2.269713,2.44907 -2.539922,4.29491 -0.730368,4.9893 0.846774,0.32494 1.172462,1.28776 1.007747,2.97914 -0.188829,1.93902 0.04871,2.45104 1.059878,2.28486 1.061761,-0.17449 1.310547,0.56772 1.342681,4.00571 0.0544,5.81509 -0.412468,7.02388 -2.712544,7.02388 -1.842882,0 -2.308385,-0.69623 -2.00867,-3.00428 0.07154,-0.55079 -0.606792,-1.00143 -1.507363,-1.00143 -1.917115,0 -2.158419,-1.77482 -0.435685,-3.20456 0.660942,-0.54854 1.201712,-1.31371 1.201712,-1.70038 0,-1.33264 -2.582695,-0.69875 -4.479806,1.09952 -2.134088,2.0229 -2.50637,3.80542 -0.794764,3.80542 0.624009,0 1.613298,1.08154 2.19842,2.40342 0.585122,1.32189 1.563796,2.40343 2.174826,2.40343 0.817413,0 0.993423,0.72433 0.666133,2.74121 -0.443287,2.73164 -0.436654,2.73836 1.899498,1.92397 1.289389,-0.44949 2.54521,-1.14226 2.790719,-1.5395 0.245518,-0.39724 1.686907,-0.72226 3.203099,-0.72226 1.866139,0 2.756719,-0.37294 2.756719,-1.15443 0,-0.63494 0.374959,-1.38617 0.833251,-1.66941 0.547612,-0.33844 0.642444,0.26327 0.276626,1.75529 -0.30614,1.24864 -0.861363,2.39043 -1.233821,2.53731 -0.918885,0.36236 -0.865898,4.94037 0.05718,4.94037 0.403912,0 0.881256,-0.44063 1.060775,-0.97917 0.398672,-1.19603 12.425991,-1.37757 13.269225,-0.20029 0.306837,0.42839 1.278909,0.88784 2.160165,1.02101 5.22695,0.78985 10.219902,2.77462 10.595782,4.21197 0.223574,0.85496 0.724969,1.55447 1.114203,1.55447 0.389235,0 0.707703,0.40695 0.707703,0.90434 0,0.64928 -2.25961,0.74415 -8.011411,0.33637 -5.169629,-0.36652 -8.011413,-0.28471 -8.011413,0.2306 0,0.43922 -0.991412,1.13025 -2.203138,1.53562 l -2.203139,0.73702 3.040804,1.00621 c 2.618979,0.86661 2.897696,1.17864 2.009142,2.24929 -0.896605,1.08034 -0.787386,1.16555 0.83426,0.65085 2.480398,-0.78724 6.96888,0.10982 8.572308,1.71324 1.184824,1.18483 1.511185,1.18332 4.031455,-0.0185 1.508253,-0.71923 2.742282,-0.95301 2.742282,-0.51952 0,0.4335 0.67103,0.78818 1.49118,0.78818 1.17126,0 1.40634,-0.44383 1.09574,-2.06867 -0.2175,-1.13776 -0.88646,-2.25707 -1.48659,-2.48736 -1.47517,-0.56608 -0.57016,-1.8531 1.30309,-1.8531 1.9349,0 2.78673,1.37683 1.67821,2.71251 -0.47474,0.57203 -0.61059,1.29262 -0.3019,1.60132 1.59325,1.59325 -0.99783,11.709 -2.99917,11.709 -0.42931,0 -0.78056,0.52672 -0.78056,1.1705 0,1.55675 -3.157938,4.43749 -4.864481,4.43749 -1.523386,0 -2.318599,-2.20727 -2.334862,-6.48082 -0.0088,-2.31237 0.39026,-3.05849 2.037094,-3.80883 1.126412,-0.51323 1.826161,-1.29213 1.554999,-1.73088 -0.745022,-1.20547 -2.791457,-0.95596 -3.313312,0.40398 -0.594679,1.54971 -2.388178,1.54971 -2.982857,0 -0.679512,-1.77079 -3.520928,-1.46086 -4.569502,0.49842 -0.786176,1.46898 -1.389099,1.63446 -4.434461,1.21704 -3.9424,-0.54036 -4.568684,-0.0699 -1.473523,1.10686 3.059647,1.16328 1.561296,2.65509 -2.081637,2.07256 -1.668659,-0.26683 -3.541992,-0.68011 -4.162964,-0.9184 -1.603893,-0.61547 -3.519061,3.62308 -2.056297,4.55091 1.418781,0.89992 0.385252,0.85311 -2.10999,-0.0956 -2.186859,-0.83144 -2.803682,-2.42325 -0.93901,-2.42325 0.613795,0 1.313071,-0.51357 1.553934,-1.14125 0.483264,-1.25937 -3.062122,-4.0129 -4.234216,-3.28852 -0.394834,0.24402 -0.914102,-0.19163 -1.15394,-0.96813 -0.239829,-0.77649 -0.296678,-0.10241 -0.126332,1.49796 0.170339,1.60037 -0.09135,3.31081 -0.581524,3.801 -0.654228,0.65422 -0.476968,1.30829 0.666557,2.45948 0.856797,0.86254 1.991189,2.03619 2.520863,2.60813 0.529683,0.57194 1.540395,1.52277 2.246024,2.11296 1.681812,1.40666 1.123104,2.90865 -1.125644,3.02609 -2.631749,0.13745 -5.168474,1.71583 -6.163059,3.83474 -0.758016,1.6149 -0.68379,1.81425 0.554886,1.49033 1.130915,-0.29574 1.384525,0.052 1.212776,1.66293 -0.119442,1.12028 -0.68367,2.59897 -1.253834,3.28598 -0.698764,0.84195 -0.743555,1.24911 -0.137436,1.24911 0.494585,0 0.899241,0.36738 0.899241,0.8164 0,0.44903 -0.811155,0.68185 -1.802568,0.51738 -0.991412,-0.16447 -1.378067,-0.14993 -0.859232,0.0323 0.599759,0.21064 0.793731,1.40823 0.532559,3.28804 -0.611559,4.40182 -0.949873,5.12972 -2.071094,4.456 -0.694934,-0.41757 -0.666286,-0.185 0.09244,0.75036 0.604742,0.74553 1.686282,1.38396 2.403424,1.41875 0.830239,0.0403 0.940123,0.21004 0.302479,0.46733 -1.524179,0.61502 -1.195928,2.51352 0.600856,3.47513 0.881255,0.47163 1.602282,1.38559 1.602282,2.03103 0,0.64544 0.381792,1.17353 0.848417,1.17353 0.466633,0 0.620155,0.45064 0.341166,1.00143 -0.278997,0.55078 0.0099,0.37053 0.64189,-0.40057 1.408791,-1.71875 2.975375,-1.8242 2.975375,-0.20028 0,0.66094 -0.501691,1.20171 -1.11486,1.20171 -1.249052,0 -2.54348,3.98862 -1.535307,4.73085 0.356019,0.26211 1.101008,1.28773 1.655526,2.27914 0.85948,1.53664 0.820088,1.80257 -0.267044,1.80257 -0.7014,0 -1.123449,0.45064 -0.937896,1.00142 0.185544,0.55079 -0.235055,1.44061 -0.934668,1.97738 -0.930141,0.71363 -0.985764,0.98279 -0.206951,1.00143 0.756518,0.0181 0.917003,0.69966 0.553957,2.35263 -0.28112,1.27993 -0.163352,2.54209 0.261701,2.80479 0.425062,0.2627 0.595016,1.15762 0.377682,1.98871 -0.464902,1.77777 1.248194,3.14759 2.137285,1.709 1.027063,-1.66182 1.758521,0.48934 1.251398,3.68028 -0.375438,2.3624 -0.237971,2.80577 0.752168,2.42582 0.676011,-0.25941 1.211574,-0.03 1.211574,0.51893 0,0.54112 0.721027,1.43415 1.602282,1.9845 0.949769,0.59314 1.602283,0.67162 1.602283,0.19271 0,-0.44437 0.360514,-0.80793 0.801141,-0.80793 0.440629,0 0.801143,0.56205 0.801143,1.24899 0,0.68695 0.356388,1.02873 0.791968,0.75953 0.448711,-0.27732 0.591555,0.0328 0.329574,0.7155 -0.688621,1.79451 0.382809,3.16143 1.652233,2.10791 1.365145,-1.13297 3.452022,-0.26251 4.074781,1.69963 0.397783,1.2533 0.963525,1.47498 2.758225,1.0808 1.241793,-0.27275 2.451348,-0.18273 2.687901,0.20002 0.236561,0.38276 2.151521,0.78503 4.255478,0.89395 2.10395,0.10891 4.235522,0.53841 4.73682,0.95445 1.134799,0.9418 6.481059,1.18801 9.156389,0.42166 1.52221,-0.43603 1.71446,-0.3718 0.80114,0.26765 -0.94599,0.66231 -0.60503,0.87048 1.60228,0.97821 1.5422,0.0753 3.57383,0.0736 4.51474,-0.004 0.9409,-0.0773 1.92543,0.41896 2.18783,1.10276 0.63431,1.65299 -2.03393,2.55981 -6.90285,2.34599 -2.09299,-0.0919 -3.80543,0.0915 -3.80543,0.40764 0,0.3161 -0.54077,0.57474 -1.20171,0.57474 -0.66094,0 -1.20171,-0.30042 -1.20171,-0.66762 0,-1.33528 -1.60407,-0.628 -1.66553,0.73438 -0.0378,0.83755 -0.22593,0.99882 -0.46733,0.40057 -0.69296,-1.71731 -4.373222,-1.20428 -4.865523,0.67827 -0.35497,1.35739 -0.872627,1.59301 -2.697923,1.22795 -2.140754,-0.42815 -4.092614,0.64099 -2.275818,1.24659 1.29744,0.43282 -0.542301,4.65867 -2.028017,4.65867 -0.671845,0 -1.22154,-0.40256 -1.22154,-0.89458 0,-0.50015 -0.706455,-0.70984 -1.602283,-0.47558 -0.881255,0.23046 -1.602282,0.10356 -1.602282,-0.28198 0,-0.38555 -0.540771,-0.49349 -1.201712,-0.23986 -0.660942,0.25363 -1.201712,0.0621 -1.201712,-0.42571 0,-1.51578 -1.393009,-0.97249 -1.834413,0.71542 -0.230457,0.88126 -0.824583,1.60229 -1.320297,1.60229 -1.354674,0 -2.032944,-2.47409 -0.874534,-3.19002 0.75409,-0.46606 0.789957,-1.00547 0.141097,-2.12229 -0.655742,-1.12865 -0.882249,-1.20146 -0.919814,-0.29568 -0.0383,0.92237 -0.323269,0.84021 -1.226075,-0.35341 -1.13791,-1.50445 -1.176638,-1.4914 -1.188511,0.40057 -0.02187,3.49081 -0.975229,4.07462 -3.824327,2.34198 -1.414888,-0.86044 -2.572529,-1.93026 -2.572529,-2.37737 0,-0.4471 -0.54077,-0.81291 -1.201712,-0.81291 -0.660942,0 -1.201712,-0.36052 -1.201712,-0.80115 0,-0.44062 -0.54077,-0.80114 -1.201712,-0.80114 -0.660941,0 -1.201712,-0.36356 -1.201712,-0.80792 0,-0.48313 -0.634207,-0.41187 -1.577567,0.17727 -2.204564,1.37677 -2.915177,5.17374 -1.301903,6.95638 0.702449,0.77621 1.277188,1.97258 1.277188,2.65862 0,0.68604 0.538551,2.27996 1.196777,3.54205 0.658225,1.26209 1.198996,2.90501 1.201712,3.65092 0.0024,0.74591 0.781825,2.67294 1.731354,4.28228 1.444586,2.44837 1.54267,3.05143 0.600856,3.69399 -0.865817,0.59071 -0.755805,0.70079 0.476719,0.477 0.896701,-0.16282 1.48812,-0.79917 1.343033,-1.44507 -0.148724,-0.66209 0.478746,-0.36798 1.471809,0.68987 0.95496,1.01727 1.522761,2.38682 1.26646,3.05473 -0.285134,0.74305 0.530508,2.11961 2.111584,3.5637 1.931383,1.76404 2.230714,2.35298 1.195928,2.35298 -1.810115,0 -1.791416,2.20446 0.02171,2.56376 0.771098,0.1528 1.041483,0.47178 0.600856,0.70884 -0.440628,0.23707 -1.590106,0.0626 -2.554399,-0.38782 z m 4.338702,-37.53414 c -0.108066,-1.63726 -1.813441,-3.71628 -3.100587,-3.77995 -0.283331,-0.014 -0.731706,0.53887 -0.996387,1.22862 -0.362452,0.94453 -0.109925,1.13625 1.023001,0.77667 1.136275,-0.36063 1.628729,0.0185 2.013086,1.5499 0.630698,2.5129 1.220146,2.63778 1.060887,0.22476 z m 7.912848,-0.38389 c -0.814376,-0.81437 -1.486317,0.4117 -0.818141,1.49283 0.504743,0.8167 0.693451,0.81734 0.964814,0.003 0.185544,-0.55663 0.119538,-1.22986 -0.146673,-1.49607 z m -18.910276,-1.41868 c -0.548533,-0.66094 -1.313703,-1.20171 -1.700382,-1.20171 -0.386671,0 -0.703042,0.54077 -0.703042,1.20171 0,0.69073 0.723022,1.20171 1.700375,1.20171 1.420615,0 1.536284,-0.19772 0.703049,-1.20171 z m 2.002853,-2.00286 c 0.272324,-0.44062 0.134616,-0.80114 -0.306012,-0.80114 -0.440627,0 -1.023946,0.36052 -1.29627,0.80114 -0.272324,0.44063 -0.134624,0.80115 0.306004,0.80115 0.440627,0 1.023954,-0.36052 1.296278,-0.80115 z m -1.602282,-13.6194 c 0.272324,-0.44062 0.113337,-0.80114 -0.353296,-0.80114 -0.466624,0 -0.848416,0.36052 -0.848416,0.80114 0,0.44063 0.158978,0.80114 0.353287,0.80114 0.194309,0 0.576101,-0.36051 0.848425,-0.80114 z m -2.627143,-5.25382 c -0.983785,-0.68907 -2.226259,-0.97354 -2.773895,-0.63508 -0.67408,0.41661 -0.352727,0.79098 1.002836,1.16827 3.254949,0.90596 3.65415,0.78577 1.771059,-0.53319 z M 43.696192,100.74367 c 0.280672,-0.45413 -0.04094,-0.58843 -0.753858,-0.31485 -1.387913,0.53259 -1.641851,1.10682 -0.489465,1.10682 0.414623,0 0.974116,-0.35638 1.243323,-0.79197 z M 31.030301,97.37972 c -0.25574,-0.63909 -0.445579,-0.44926 -0.484026,0.48403 -0.03477,0.84453 0.154565,1.31771 0.420776,1.0515 0.266219,-0.26622 0.294676,-0.95721 0.06321,-1.53553 z m 2.199045,-5.71978 c -0.714666,-1.86238 -1.889324,-0.89919 -1.362109,1.11689 0.255981,0.97887 0.726699,1.36038 1.152762,0.93431 0.396069,-0.39606 0.490275,-1.31911 0.209347,-2.0512 z m 6.867382,-0.53913 c 0,-1.32189 -0.360513,-2.40343 -0.801141,-2.40343 -0.440627,0 -0.801141,1.08154 -0.801141,2.40343 0,1.32188 0.360514,2.40342 0.801141,2.40342 0.440628,0 0.801141,-1.08154 0.801141,-2.40342 z m 6.809701,-1.06819 c 0,-3.12826 -1.557915,-3.00044 -1.859729,0.15258 -0.186722,1.95071 0.03333,2.59259 0.801141,2.33666 0.582222,-0.19407 1.058588,-1.31424 1.058588,-2.48924 z m 19.627961,1.46876 c 0,-0.66094 -0.360514,-1.20171 -0.801141,-1.20171 -0.440628,0 -0.801142,0.54077 -0.801142,1.20171 0,0.66094 0.360514,1.20171 0.801142,1.20171 0.440627,0 0.801141,-0.54077 0.801141,-1.20171 z M 37.188353,86.11367 c 0.710444,-2.651 0.628512,-3.00428 -0.69676,-3.00428 -0.660942,0 -1.201712,0.51129 -1.201712,1.13619 0,0.62491 -0.218832,1.70645 -0.486285,2.40342 -0.309377,0.80622 -0.05191,1.26724 0.707704,1.26724 0.656688,0 1.411363,-0.81115 1.677053,-1.80257 z m 7.960765,-2.00285 c 0.237787,-1.21173 0.104068,-2.54112 -0.29716,-2.9542 -0.444833,-0.458 -0.933834,0.2706 -1.253145,1.86718 -0.367579,1.83789 -0.725081,2.30053 -1.19946,1.55221 -0.516288,-0.8144 -0.678703,-0.7351 -0.688077,0.33595 -0.02099,2.39807 2.945709,1.70672 3.437842,-0.80114 z m 8.567012,-1.00143 c 0,-0.82924 0.360513,-1.73053 0.801141,-2.00284 1.02768,-0.63514 1.04029,-2.00286 0.01851,-2.00286 -1.298249,0 -3.295078,3.68692 -2.756695,5.08993 0.633222,1.65013 1.937088,0.92033 1.937088,-1.08423 z M 42.128615,80.70597 c 0.613971,0 1.489498,-0.69732 1.945628,-1.54961 0.883618,-1.65105 1.131924,-4.85952 0.376095,-4.85952 -0.872963,0 -3.958599,1.85048 -4.541629,2.72365 -0.946204,1.41707 -0.70712,-2.65335 0.262237,-4.46461 0.633054,-1.18286 0.633054,-1.87793 0,-2.51098 -0.481446,-0.48145 -0.875359,-1.55433 -0.875359,-2.38418 0,-0.84494 -0.437343,-1.36303 -0.99396,-1.17749 -1.143012,0.381 -1.161118,1.05832 -0.266571,9.97424 0.574923,5.7302 0.806565,6.4192 1.818061,5.4077 0.637565,-0.63756 1.661535,-1.1592 2.275498,-1.1592 z M 34.48874,80.25812 c 0,-0.63493 -0.360514,-1.15443 -0.801142,-1.15443 -0.440627,0 -0.801141,0.74231 -0.801141,1.64957 0,0.90725 0.360514,1.42675 0.801141,1.15442 0.440628,-0.27231 0.801142,-1.01462 0.801142,-1.64956 z m 16.368453,-1.41576 c 2.001251,-1.46335 1.01237,-4.83023 -1.211382,-4.12444 -2.068434,0.6565 -2.046955,-1.5437 0.03693,-3.78047 1.658491,-1.7802 1.495322,-3.04974 -0.39199,-3.04974 -1.270554,0 -2.999681,2.72274 -2.222615,3.4998 0.278245,0.27825 -0.275208,0.50591 -1.229904,0.50591 -2.253794,0 -2.220314,1.00977 0.06674,2.01317 1.340333,0.58803 1.800589,1.45851 1.794828,3.39453 -0.0083,2.80137 0.856621,3.22359 3.15737,1.54124 z M 32.886457,69.49 c 0,-0.44063 -0.360513,-0.80114 -0.801141,-0.80114 -0.440628,0 -0.801141,0.36051 -0.801141,0.80114 0,0.44062 0.360513,0.80114 0.801141,0.80114 0.440628,0 0.801141,-0.36052 0.801141,-0.80114 z M 47.46754,65.01098 c 0.258441,-2.2137 0.04572,-2.73125 -1.122551,-2.73125 -1.790614,0 -1.820473,-0.6567 -0.115532,-2.54063 1.11804,-1.23543 1.139263,-1.46508 0.135369,-1.46508 -1.96689,0 -3.295455,3.46661 -2.693662,7.02855 0.437952,2.59223 0.823381,3.13374 2.009695,2.82351 0.968372,-0.25323 1.576318,-1.31319 1.786681,-3.1151 z m 8.37143,0.7905 c 2.147291,-0.5761 3.17054,-5.13945 1.143252,-5.09856 -1.928763,0.0389 -3.655839,1.77395 -3.762591,3.77994 -0.103652,1.94771 0.0278,2.0139 2.619339,1.31862 z M 39.078037,60.91112 c 0.763376,-1.16506 0.876545,-1.83596 0.309689,-1.83596 -0.491307,0 -0.89328,0.29253 -0.89328,0.65008 0,0.35754 -0.77065,1.47727 -1.712552,2.48828 -1.396958,1.49946 -1.507683,1.96631 -0.600856,2.53339 0.764642,0.47816 1.202594,0.27452 1.402863,-0.65232 0.16014,-0.74113 0.832506,-2.17369 1.494136,-3.18347 z m 14.638093,-0.525 c 0,-0.60086 0.944986,-2.03746 2.099975,-3.19244 1.799436,-1.79944 1.912629,-2.17186 0.790935,-2.6023 -1.631452,-0.62605 -3.692051,0.99966 -3.692051,2.91283 0,0.79059 -0.424349,1.57887 -0.942984,1.75176 -0.518643,0.17288 -0.677621,0.74369 -0.353295,1.26847 0.799403,1.29346 2.09742,1.20786 2.09742,-0.13832 z m 0.801141,-7.4717 c 0,-1.60167 -2.718985,-0.97645 -3.041733,0.69943 -0.190984,0.99171 0.163273,1.22032 1.3928,0.89879 0.906916,-0.23716 1.648933,-0.95636 1.648933,-1.59822 z m 9.192407,-0.17789 c 1.060887,-0.41455 1.62328,-1.4474 1.708265,-3.13725 0.0697,-1.38558 -0.191376,-2.32265 -0.580138,-2.08239 -1.456339,0.90007 -2.439091,-0.58802 -1.281457,-1.94038 1.933746,-2.25902 2.37447,-3.3813 1.235023,-3.14488 -0.622295,0.12912 -0.963645,-0.35955 -0.825576,-1.18186 0.299218,-1.78204 -2.664916,-1.93116 -3.341456,-0.16811 -0.32685,0.85176 -0.05223,1.1619 0.886671,1.00143 0.83128,-0.14208 1.483113,0.39056 1.676364,1.36982 0.17392,0.88125 0.06681,1.36194 -0.238003,1.06818 -0.304818,-0.29375 -1.171613,0.0833 -1.926216,0.83791 -0.990988,0.99099 -1.282803,2.30733 -1.050801,4.74009 0.323966,3.3971 0.847615,3.76664 3.737324,2.63744 z m 2.470047,-18.030676 c 0.854617,-0.624915 1.342496,-1.347567 1.084168,-1.605894 -0.651224,-0.651226 -5.536351,1.130581 -5.536351,2.019335 0,1.109839 2.713586,0.857848 4.452183,-0.413441 z M 121.81314,231.32053 c 0,-0.44063 0.36051,-0.80114 0.80114,-0.80114 0.44063,0 0.80114,0.36051 0.80114,0.80114 0,0.44062 -0.36051,0.80114 -0.80114,0.80114 -0.44063,0 -0.80114,-0.36052 -0.80114,-0.80114 z M 4.8719895,230.01662 c 0.01402,-0.38442 0.5547825,-1.39875 1.2017119,-2.25407 0.9416214,-1.24493 1.1762356,-1.30445 1.1762356,-0.29837 0,0.6912 -0.5407703,1.70553 -1.2017119,2.25406 -0.6609413,0.54854 -1.1902475,0.68281 -1.1762356,0.29838 z M 136.59577,224.31054 c 0.31894,-2.09298 0.72664,-4.84168 0.906,-6.10823 0.17936,-1.26655 0.65802,-3.60989 1.06368,-5.20742 0.40567,-1.59753 0.96078,-6.87026 1.23359,-11.71716 0.66412,-11.79943 1.16393,-14.82111 2.45149,-14.82111 0.58804,0 1.50357,1.31626 2.03451,2.92502 1.11841,3.38883 1.14705,14.61967 0.0465,18.23568 -0.41396,1.36013 -0.97961,3.82489 -1.25699,5.47724 -0.27738,1.65236 -0.80244,3.00428 -1.16678,3.00428 -0.36435,0 -0.89869,1.47733 -1.18742,3.28296 -0.69854,4.36863 -2.57464,8.73416 -3.7535,8.73416 -0.68172,0 -0.78676,-1.07729 -0.37104,-3.80542 z M 20.713372,201.81399 c -1.063715,-1.48857 -6.243037,-3.71864 -6.265437,-2.69772 -0.0153,0.69711 -1.560896,-1.64148 -1.577744,-2.38722 -0.0064,-0.29863 2.019085,-0.33332 4.501845,-0.0771 3.663435,0.3781 4.440382,0.25396 4.122873,-0.65875 -0.215178,-0.61854 -0.980644,-1.01963 -1.701047,-0.89131 -1.646898,0.29337 -4.71321,-1.29567 -4.176373,-2.16429 0.220562,-0.35687 2.042798,-0.58047 4.049408,-0.49688 4.405148,0.18352 4.435847,-1.25224 0.03525,-1.64712 -5.400133,-0.48457 -5.994868,-3.08562 -0.843057,-3.68706 1.546282,-0.18052 2.811421,-0.0188 2.811421,0.35934 0,0.37815 0.360513,0.46474 0.801141,0.19242 0.440628,-0.27233 0.801141,-0.12466 0.801141,0.32815 0,0.4528 0.591803,0.59618 1.315114,0.31862 1.121709,-0.43045 1.236753,-0.087 0.782274,2.33561 -0.413157,2.20231 -0.24442,2.95095 0.751222,3.33301 1.028001,0.39448 1.216277,0.0535 0.944169,-1.70961 -0.186946,-1.2113 -0.189077,-1.75172 -0.0048,-1.20093 0.184335,0.55078 0.579105,1.0012 0.877266,1.00093 0.298161,-2.7e-4 0.422674,1.72101 0.27669,3.82509 -0.242073,3.48898 -0.53775,3.98231 -3.360539,5.6069 -2.973748,1.71147 -3.136108,1.72393 -4.140851,0.31789 z m 11.883368,-6.14425 c 0.502092,-1.30843 3.129066,-1.63964 3.842971,-0.48451 0.465367,0.75298 -1.301831,1.68622 -3.193069,1.68622 -0.65845,0 -0.923195,-0.48953 -0.649902,-1.20171 z m -3.228983,-2.00285 c 0.605318,-3.51454 1.591379,-4.6512 2.899835,-3.34275 1.067392,1.0674 -0.0064,3.70209 -1.381801,3.39145 -0.407428,-0.092 -1.024315,0.49031 -1.370873,1.29401 -0.367603,0.85253 -0.428907,0.29317 -0.147161,-1.34271 z m 90.865353,1.00142 c 0.0385,-1.03755 4.78459,-5.32389 4.78459,-4.32104 0,0.63585 0.68041,0.50731 2.04399,-0.38614 1.59625,-1.0459 2.25434,-1.1273 3.00428,-0.37158 0.74837,0.75414 0.65088,0.84991 -0.4417,0.43396 -1.02311,-0.38951 -1.40281,-0.1317 -1.40501,0.95395 -0.002,0.99567 -1.13092,1.95142 -3.41327,2.88971 -3.76526,1.54794 -4.606,1.69523 -4.57288,0.80114 z M -1.7650011,190.57608 c -0.2476247,-0.94692 0.027239,-1.78483 0.6658285,-2.02988 1.6342881,-0.62714 2.297609,1.10069 0.94271894,2.45559 -1.04837344,1.04837 -1.23605684,0.9987 -1.60854744,-0.42571 z m 6.6115143,-2.23391 -2.0028531,-1.0608 2.1558551,-0.0118 c 1.1857211,-0.006 2.3632706,0.3238 2.6167757,0.73397 0.7862,1.27209 -0.6709879,1.45025 -2.7697777,0.33864 z m 126.5803168,0.51787 c 0,-0.44063 0.36052,-0.80114 0.80114,-0.80114 0.44063,0 0.80115,0.36051 0.80115,0.80114 0,0.44063 -0.36052,0.80114 -0.80115,0.80114 -0.44062,0 -0.80114,-0.36051 -0.80114,-0.80114 z M 28.07961,185.70276 c 0,-0.41462 0.360513,-0.97667 0.801141,-1.249 0.440628,-0.27232 0.801141,0.0669 0.801141,0.75386 0,0.68695 -0.360513,1.249 -0.801141,1.249 -0.440628,0 -0.801141,-0.33924 -0.801141,-0.75386 z m 112.42405,-1.98384 c 0.23963,-0.62447 -0.0823,-1.33418 -0.71543,-1.57714 -1.48769,-0.57088 -1.45051,-1.39225 0.23958,-5.29336 0.9127,-2.10674 1.90592,-3.21006 2.8897,-3.21006 0.86648,0 1.33969,0.42257 1.12145,1.00142 -0.20766,0.55079 -0.97734,3.07438 -1.71038,5.60799 -0.73305,2.53361 -1.54156,4.60656 -1.79671,4.60656 -0.25515,0 -0.26785,-0.51093 -0.0282,-1.13541 z m -65.957858,-3.27086 c 0,-0.66094 0.360514,-1.20172 0.801142,-1.20172 0.440627,0 0.801141,0.54078 0.801141,1.20172 0,0.66094 -0.360514,1.20171 -0.801141,1.20171 -0.440628,0 -0.801142,-0.54077 -0.801142,-1.20171 z m 29.288138,-17.14933 c -0.24676,-0.39926 -1.22569,-0.52273 -2.17541,-0.27437 -1.18299,0.30936 -1.54627,0.15953 -1.15363,-0.47579 0.7982,-1.29152 3.87301,-1.15804 5.73315,0.2489 1.52015,1.14978 1.51564,1.17681 -0.20017,1.20171 -0.96541,0.014 -1.95718,-0.30118 -2.20394,-0.70045 z m -16.469876,-1.81624 c 0,-0.36432 -1.171669,-0.66375 -2.603709,-0.6654 -2.320233,-0.002 -2.760653,-0.38468 -4.045178,-3.50869 -1.535227,-3.73373 -1.192139,-7.70428 0.665708,-7.70428 0.579369,0 2.124514,-0.90129 3.433651,-2.00285 1.309145,-1.10157 2.740288,-2.00286 3.180323,-2.00286 0.440035,0 1.007571,-0.54077 1.261204,-1.20171 0.253626,-0.66094 0.926504,-1.20171 1.495282,-1.20171 0.568779,0 1.502124,-0.74936 2.074099,-1.66523 0.916137,-1.46698 0.843698,-1.71655 -0.608435,-2.09629 -0.906611,-0.23709 -1.64838,-0.8443 -1.64838,-1.34936 0,-0.50507 -0.811155,-1.27418 -1.802568,-1.70913 -2.835255,-1.2439 -2.783717,-5.03056 0.111431,-8.18658 1.306197,-1.4239 2.581109,-3.23859 2.833132,-4.03265 0.252023,-0.79406 1.500353,-2.05935 2.774064,-2.81175 1.273702,-0.7524 2.54283,-2.27246 2.820281,-3.3779 0.319664,-1.27363 1.068514,-2.00991 2.0442,-2.00991 0.846851,0 1.762541,-0.36052 2.034871,-0.80115 0.27232,-0.44062 0.9245,-0.78967 1.44928,-0.77566 0.61043,0.0163 0.52124,0.37705 -0.24757,1.00143 -1.59328,1.29395 -2.05458,6.20109 -0.66711,7.09656 0.8862,0.57196 0.88205,0.80878 -0.0244,1.39325 -0.92201,0.5945 -0.92201,0.78164 0,1.20171 0.8457,0.3853 0.86616,0.60298 0.0906,0.96488 -0.55345,0.25828 -0.97313,1.7814 -0.93817,3.40485 0.0348,1.61564 0.23757,2.50941 0.45064,1.98617 0.26357,-0.64729 0.8835,-0.45524 1.9396,0.60085 0.85371,0.85371 2.54362,1.55773 3.75535,1.56448 3.96095,0.022 4.73822,1.29385 1.50525,2.46291 -4.00914,1.44972 -3.93801,3.39471 0.097,2.6537 1.65236,-0.30344 3.12445,-0.86055 3.27133,-1.23801 0.4469,-1.14851 2.12577,-0.76856 3.1625,0.7157 0.5386,0.77109 2.0523,3.11443 3.36378,5.20741 1.31148,2.09299 2.87037,3.80542 3.46421,3.80542 1.26962,0 4.56358,3.31403 4.56358,4.59138 0,0.48563 0.87878,1.54394 1.95286,2.35179 1.53359,1.15347 1.85486,1.95587 1.49638,3.73739 -0.74708,3.71273 -2.89793,4.09782 -12.74649,2.28215 -4.80064,-0.88504 -11.04503,-1.63694 -13.87642,-1.6709 -5.408571,-0.0649 -11.275368,1.11499 -11.275368,2.26754 0,0.37364 -1.081541,0.83808 -2.403424,1.03209 -1.321883,0.19401 -2.403424,0.0546 -2.403424,-0.30964 z M 121.012,155.3093 c 0,-0.81736 -3.26781,-2.17548 -7.01698,-2.91629 -1.43589,-0.28371 -2.40602,-0.84703 -2.15586,-1.2518 0.4139,-0.6697 -6.55802,-1.17067 -10.42466,-0.74907 -1.435746,0.15654 -3.548219,2.09898 -3.610123,3.31953 -0.01402,0.27632 3.850043,0.85214 8.586793,1.27959 11.90162,1.07403 14.62083,1.13318 14.62083,0.31804 z M 96.176618,129.57559 c 0,-0.44063 -0.450642,-0.80666 -1.001427,-0.81341 -0.678935,-0.008 -0.614435,-0.28596 0.200286,-0.86213 1.068185,-0.75544 1.068185,-0.81346 0,-0.5222 -1.657634,0.45197 -2.047717,2.99888 -0.459311,2.99888 0.693244,0 1.260452,-0.36052 1.260452,-0.80114 z m 55.714202,17.82539 c 0.30965,-2.97424 0.71845,-5.57752 0.90847,-5.78507 0.76905,-0.84005 1.79642,2.13541 1.51338,4.38307 -1.03352,8.2075 -3.26484,9.4992 -2.42185,1.402 z m -4.04059,3.80542 c 0.27232,-0.44063 0.65411,-0.80114 0.84842,-0.80114 0.19431,0 0.35329,0.36051 0.35329,0.80114 0,0.44063 -0.38179,0.80114 -0.84842,0.80114 -0.46664,0 -0.62562,-0.36051 -0.35329,-0.80114 z m -80.489223,-3.80542 c 0.03557,-0.83905 2.045018,-3.40485 2.666551,-3.40485 1.097724,0 0.441453,3.06042 -0.754699,3.51942 -1.644407,0.63102 -1.942712,0.61315 -1.911852,-0.11457 z m 1.576807,-7.81113 c 0.548533,-0.66094 1.339452,-1.20171 1.757599,-1.20171 0.418148,0 0.219497,0.54077 -0.441444,1.20171 -0.660942,0.66094 -1.451861,1.20171 -1.7576,1.20171 -0.30574,0 -0.107089,-0.54077 0.441445,-1.20171 z m 43.793366,-5.4077 c -0.67626,-0.43584 -0.60228,-0.81751 0.2694,-1.38973 2.28932,-1.50284 6.40913,-0.68347 6.40913,1.27468 0,1.18895 -4.88173,1.27305 -6.67853,0.11505 z m 40.45296,-2.20314 c 0,-1.10157 0.18184,-1.55221 0.40409,-1.00143 0.22224,0.55079 0.22224,1.45207 0,2.00286 -0.22225,0.55078 -0.40409,0.10014 -0.40409,-1.00143 z m 0.0802,-5.3353 c -0.72593,-0.29325 -0.77117,-0.82023 -0.16724,-1.94866 0.45528,-0.8507 0.72278,-2.16047 0.59445,-2.91061 -0.31928,-1.86635 2.35365,-2.32373 2.72504,-0.46629 0.83041,4.15313 -0.49818,6.39771 -3.15225,5.32556 z m -63.473641,-5.04824 c -1.465576,-0.92686 -0.940668,-1.4823 2.27142,-2.40351 2.829398,-0.81146 3.221268,-0.12008 1.047147,1.84747 -1.695527,1.53443 -1.755589,1.5445 -3.318567,0.55604 z m 74.827631,-5.89657 c -0.64144,-1.67157 0.15999,-2.76305 1.23758,-1.68546 0.45507,0.45507 0.46687,1.21972 0.0297,1.92699 -0.61465,0.99454 -0.80706,0.95787 -1.26731,-0.24153 z m -47.54878,-0.76928 c -0.0348,-0.78493 -0.60402,-1.63466 -1.26496,-1.88828 -1.46861,-0.56356 -1.68908,-5.39255 -0.22391,-4.90416 1.04783,0.34928 2.49714,5.94534 1.90736,7.36467 -0.19538,0.4702 -0.3837,0.2127 -0.41849,-0.57223 z m 40.15473,-4.07252 c -0.57244,-0.50021 -1.77639,-1.68298 -2.67544,-2.62839 -1.34332,-1.41255 -2.42106,-1.68407 -6.04712,-1.52347 -2.7376,0.12125 -4.67825,0.62167 -5.11267,1.31834 -0.58006,0.93025 -1.32098,0.79543 -4.31861,-0.78583 -2.88146,-1.51998 -3.85452,-1.71281 -4.77754,-0.94676 -1.90312,1.57944 -6.29942,0.72489 -7.36874,-1.43233 -0.87267,-1.76051 -0.98792,-1.78821 -1.75291,-0.42127 -0.55775,0.99666 -0.55754,1.95134 6.5e-4,2.99434 0.7367,1.37653 0.60091,1.47633 -1.34439,0.98809 -3.12442,-0.78418 -7.62235,-5.42733 -7.62235,-7.86844 0,-2.62848 1.72573,-4.15704 3.16354,-2.8021 0.82364,0.77616 1.11953,0.77217 1.40964,-0.0191 0.59768,-1.63004 8.27217,-1.23 12.12626,0.6321 1.85956,0.89844 3.69138,1.4417 4.07073,1.20724 0.37935,-0.23444 0.91531,0.47253 1.19102,1.57105 0.27571,1.09853 1.07377,1.99732 1.77345,1.99732 0.78933,0 1.10088,-0.44636 0.82087,-1.17605 -0.66329,-1.72851 0.27547,-1.97317 4.29251,-1.11873 7.2512,1.54238 7.71604,1.46656 8.85841,-1.44491 0.57607,-1.46819 1.34063,-2.66943 1.69902,-2.66943 0.35839,0 0.65161,-0.72103 0.65161,-1.60229 0,-0.88125 0.36052,-1.60228 0.80114,-1.60228 0.44063,0 0.80316,-1.8927 0.80561,-4.20599 0.005,-4.73529 1.29696,-10.21455 2.40843,-10.21455 0.40441,0 1.14572,0.76688 1.64734,1.70417 0.69177,1.29259 0.67954,1.84786 -0.0506,2.29914 -0.52947,0.32723 -0.83708,1.2077 -0.68356,1.95659 0.23629,1.15272 0.66225,1.01508 2.77641,-0.89715 3.18486,-2.88064 2.62786,-5.2755 -1.36386,-5.86389 -1.88175,-0.27737 -2.81035,-0.88551 -3.01932,-1.97735 -0.25178,-1.31555 -0.1042,-1.41281 0.89079,-0.58703 0.65592,0.54436 1.77904,0.76469 2.49583,0.48964 1.42567,-0.54709 1.78552,-1.93097 0.5021,-1.93097 -0.44062,0 -0.80114,-0.54077 -0.80114,-1.20171 0,-0.66094 0.56205,-1.20171 1.249,-1.20171 0.68694,0 1.02618,-0.36051 0.75386,-0.80114 -0.27233,-0.44063 0.0368,-0.80114 0.68709,-0.80114 0.65023,0 1.36408,0.45064 1.58632,1.00142 0.25729,0.63765 0.42706,0.52777 0.46733,-0.30247 0.0826,-1.70189 -2.00162,-3.49717 -2.7167,-2.34014 -0.92051,1.48943 -4.20285,0.90642 -5.41903,-0.96252 -0.64514,-0.99141 -1.44036,-3.24188 -1.76715,-5.00103 -0.3268,-1.75916 -0.82169,-3.56172 -1.09976,-4.00571 -1.05394,-1.68272 -0.75421,-2.81009 0.74709,-2.81009 0.85609,0 1.76405,0.54077 2.01767,1.20171 0.25363,0.66094 1.1436,1.20171 1.97771,1.20171 0.83411,0 1.51657,0.31637 1.51657,0.70304 0,1.13157 -2.09006,2.54218 -2.80586,1.89372 -0.36058,-0.32665 -0.39626,-0.14327 -0.0793,0.40752 0.78128,1.35763 2.47323,1.26138 3.69449,-0.21017 0.76483,-0.92155 1.26776,-0.99396 2.10096,-0.30247 0.80409,0.66732 1.09543,0.66995 1.09543,0.01 0,-0.49458 0.47985,-0.89924 1.06633,-0.89924 1.50861,0 3.26035,3.61599 2.59355,5.35366 -0.73483,1.91492 -0.65202,2.25718 0.54611,2.25718 1.16147,0 1.15753,-0.0909 0.30679,7.0814 -0.46073,3.88425 -1.13923,5.96845 -2.33099,7.16021 -1.09284,1.09283 -1.34818,1.79204 -0.72972,1.9982 1.47991,0.4933 1.12274,2.09455 -0.72454,3.2482 -1.20995,0.75563 -1.54666,1.56152 -1.21105,2.89867 0.30466,1.21386 -0.17536,2.79546 -1.39302,4.58976 -1.35076,1.99047 -1.64401,3.07672 -1.0744,3.97975 1.51014,2.39406 -1.55128,8.67712 -3.60845,7.40573 -0.53236,-0.32902 -0.63825,0.32945 -0.30036,1.86783 0.61375,2.79437 -0.8962,4.62294 -2.59303,3.14021 z m 1.31621,-9.61584 c -0.1879,-0.8635 -0.63074,-1.04352 -1.39358,-0.56652 -0.67282,0.42072 -0.90167,1.26337 -0.57459,2.11572 0.66738,1.73919 2.38887,0.38417 1.96817,-1.5492 z m 6.4204,-36.96841 c 0.26339,-1.35898 0.18197,-1.37452 -1.00142,-0.19112 -1.53929,1.53928 -1.67173,2.46495 -0.28669,2.00379 0.55078,-0.18339 1.13043,-0.99909 1.28811,-1.81267 z m -49.8135,42.25686 c -0.36038,-0.55797 -0.99083,-0.80709 -1.40101,-0.55357 -0.41018,0.2535 -0.74579,-0.12241 -0.74579,-0.83536 0,-0.71295 0.32973,-1.09249 0.73272,-0.84343 0.40299,0.24906 0.89441,-4e-5 1.09204,-0.55358 0.57542,-1.61171 1.53495,-0.12288 1.24327,1.92908 -0.18582,1.3072 -0.46354,1.56552 -0.92123,0.85686 z m 2.34333,-12.6961 c 0.48674,-0.2009 0.72864,-1.18314 0.53756,-2.18274 -0.49174,-2.57233 2.59547,-3.76745 10.93355,-4.23259 3.74811,-0.20909 6.96339,-0.5288 7.14506,-0.71047 0.18168,-0.18168 1.59035,0.19616 3.13039,0.83963 1.54004,0.64346 3.81631,1.16994 5.05838,1.16994 2.84274,0 3.42721,0.9273 2.23445,3.5451 -1.11414,2.44528 -2.95981,2.61018 -9.1319,0.8159 -3.88211,-1.12856 -4.63832,-1.12856 -7.96243,0 -3.14268,1.06697 -14.42927,1.78056 -11.94506,0.75523 z M 74.2943,70.36521 c 0.219801,-0.84052 1.087333,-1.70805 1.92785,-1.92785 1.083305,-0.28329 1.528219,-1.11299 1.528219,-2.84988 0,-1.63031 0.53618,-2.73719 1.602283,-3.30775 0.881255,-0.47164 1.602282,-1.44569 1.602282,-2.16457 0,-0.71887 0.228534,-1.07851 0.507852,-0.79919 0.279317,0.27932 1.409479,-0.20137 2.511465,-1.06819 2.064717,-1.62411 5.471731,-2.1991 4.591525,-0.7749 -0.272324,0.44063 -1.194886,0.80114 -2.050137,0.80114 -0.85525,0 -1.554999,0.36051 -1.554999,0.80114 0,0.44063 0.540771,0.80114 1.201712,0.80114 1.505745,0 1.49908,0.36949 -0.08128,4.5076 -1.188308,3.11154 -2.76304,4.36847 -5.795784,4.6261 -0.588614,0.05 -1.529643,0.71923 -2.091171,1.48717 -1.44506,1.97624 -4.424761,1.87541 -3.899821,-0.13196 z m 77.35533,-10.79063 c -4.95808,-5.64693 -15.54284,-6.88005 -34.67929,-4.04014 -3.42955,0.50896 -7.17432,-0.76882 -7.17432,-2.44801 0,-0.67185 -0.36051,-1.22154 -0.80114,-1.22154 -0.44063,0 -0.80114,-0.72103 -0.80114,-1.60228 0,-0.88126 0.27162,-1.51216 0.6036,-1.402 0.33198,0.11016 2.79611,-0.84066 5.47585,-2.11292 4.29652,-2.03987 4.82819,-2.5437 4.49938,-4.26379 -0.20509,-1.07282 0.11072,-2.85421 0.7018,-3.95864 1.06765,-1.994931 6.82268,-5.380771 7.95567,-4.680543 0.32567,0.201277 0.4303,-1.159676 0.23253,-3.024339 -0.35008,-3.300495 -0.27315,-3.430848 2.90405,-4.921183 1.795,-0.841987 3.26364,-1.833399 3.26364,-2.203138 0,-0.36974 0.6309,-0.677774 1.40199,-0.684521 0.87584,-0.0077 1.06669,-0.233162 0.50855,-0.600856 -1.87741,-1.236804 -2.05847,-4.082749 -0.35267,-5.5433 2.33728,-2.001242 2.03984,-2.935045 -0.75673,-2.37573 -2.3016,0.460319 -2.40343,0.362739 -2.40343,-2.303281 0,-1.531182 -0.36051,-2.783966 -0.80114,-2.783966 -0.44062,0 -0.80114,0.939855 -0.80114,2.088566 0,1.575356 -0.31139,1.969075 -1.26724,1.602283 -0.69697,-0.267457 -1.418,-0.486284 -1.60228,-0.486284 -0.18427,0 -0.33504,-0.857141 -0.33504,-1.904758 0,-1.965078 -2.04524,-4.32846 -2.95688,-3.416824 -0.28311,0.283104 -0.0941,0.514734 0.41993,0.514734 1.12248,0 1.19651,1.549856 0.15289,3.200663 -0.65691,1.039093 -0.89637,1.007544 -1.8072,-0.238096 -1.18218,-1.616725 -8.21258,-2.678968 -9.02547,-1.363684 -0.77607,1.2557 -3.60724,0.943978 -3.60724,-0.397171 0,-0.667618 -0.71213,-1.201712 -1.60228,-1.201712 -0.91038,0 -1.60228,0.534094 -1.60228,1.236831 0,0.733519 -0.57053,1.141037 -1.402,1.001427 -0.92057,-0.154569 -1.36379,0.246028 -1.29073,1.166593 0.0612,0.771098 -0.38944,1.401997 -1.00142,1.401997 -0.61199,0 -1.1127,-0.5022 -1.1127,-1.115999 0,-0.931113 -1.59024,-2.088566 -2.869522,-2.088566 -0.18427,0 -0.335045,1.08154 -0.335045,2.403423 0,1.901375 -0.348649,2.403424 -1.669042,2.403424 -0.992654,0 -1.52353,-0.405837 -1.30997,-1.001426 0.19749,-0.550785 0.05488,-1.59447 -0.316971,-2.3193 -0.862926,-1.682149 0.206165,-2.548478 5.22987,-4.238013 3.17582,-1.068067 4.06385,-1.123631 4.5943,-0.287468 0.49031,0.772881 0.66067,0.686317 0.66982,-0.340347 0.008,-0.89768 0.43403,-1.215005 1.22417,-0.911798 0.66656,0.25578 1.73231,0.03317 2.36834,-0.494685 1.33323,-1.106485 2.82888,-0.457055 2.82888,1.228335 0,0.634937 0.36052,1.154431 0.80115,1.154431 0.44062,0 0.80114,-0.698846 0.80114,-1.55299 0,-1.3455 0.45491,-1.508233 3.40485,-1.218001 6.11715,0.601842 12.15614,1.801722 15.42197,3.064174 1.76251,0.681324 3.9671,1.254595 4.89909,1.273935 0.93199,0.01934 2.61116,0.756192 3.7315,1.637447 1.12033,0.881255 2.76376,1.602282 3.65206,1.602282 2.8424,0 10.10836,1.842846 11.35101,2.878928 0.66094,0.551069 2.19313,1.249371 3.40485,1.551782 1.21173,0.302411 2.20314,0.846975 2.20314,1.210142 0,0.363168 0.72103,0.88915 1.60228,1.168849 0.88126,0.279699 1.61375,1.11515 1.62776,1.856555 0.0312,1.649641 2.37795,4.975909 2.37795,3.370462 0,-0.598283 0.26443,-0.82336 0.58761,-0.500172 0.32319,0.323188 0.62551,3.267382 0.67182,6.542654 0.0719,5.081205 -0.11373,5.955038 -1.2646,5.955038 -0.74183,0 -1.87572,0.630899 -2.51975,1.401996 -1.73541,2.07781 -3.18999,5.80828 -2.26475,5.80828 0.43118,0 0.78396,0.56204 0.78396,1.24899 0,0.68694 -0.36051,1.02618 -0.80114,0.75386 -0.45437,-0.28082 -0.80114,0.39225 -0.80114,1.555 0,2.4529 -1.20682,2.66163 -2.58934,0.44785 -1.21106,-1.93919 -2.3766,-2.10014 -2.05234,-0.2834 0.32264,1.80766 -1.31333,2.22536 -2.81895,0.71974 -1.84337,-1.84338 -3.69493,-1.5007 -4.58836,0.8492 -0.63904,1.68081 -1.16433,1.99357 -2.70064,1.60798 -1.24623,-0.31278 -2.05593,-0.0913 -2.33618,0.63899 -0.55989,1.45906 0.1203,2.07548 2.29018,2.07548 2.38017,0 5.68886,2.72438 6.30888,5.19475 0.27823,1.10854 0.85951,2.01552 1.29174,2.01552 0.43223,0 0.78588,0.54077 0.78588,1.20171 0,2.02933 -2.11647,1.33949 -4.61258,-1.50343 z M 131.18087,40.0633 c -0.20312,-0.77948 -0.38267,-0.3357 -0.399,0.98618 -0.0163,1.32189 0.14987,1.95965 0.36932,1.41725 0.21945,-0.5424 0.23281,-1.62394 0.0297,-2.40343 z m 6.65509,-5.022377 c 0,-0.440628 -0.15898,-0.801141 -0.35328,-0.801141 -0.19431,0 -0.5761,0.360513 -0.84843,0.801141 -0.27232,0.440628 -0.11334,0.801141 0.35329,0.801141 0.46663,0 0.84842,-0.360513 0.84842,-0.801141 z m 2.5896,-2.752204 c 0.20514,-1.073085 0.0724,-2.42501 -0.2949,-3.00428 -0.42573,-0.671353 -0.67233,0.03604 -0.68015,1.951063 -0.014,3.43456 0.42847,3.912519 0.97505,1.053217 z m -4.59245,0.34878 c 0.27232,-0.440628 0.11335,-0.801141 -0.35329,-0.801141 -0.46663,0 -0.84842,0.360513 -0.84842,0.801141 0,0.440628 0.15898,0.801141 0.35329,0.801141 0.1943,0 0.5761,-0.360513 0.84842,-0.801141 z m 0.40057,-3.557855 c 0,-0.194309 -0.36051,-0.576099 -0.80114,-0.848422 -0.44063,-0.272323 -0.80114,-0.113342 -0.80114,0.35329 0,0.466632 0.36051,0.848422 0.80114,0.848422 0.44063,0 0.80114,-0.15898 0.80114,-0.35329 z m 7.05555,-12.085598 c -0.24667,-0.246662 -0.69463,0.197971 -0.99548,0.988074 -0.43477,1.141785 -0.34275,1.233807 0.44847,0.448474 0.54752,-0.543441 0.79367,-1.189887 0.54701,-1.436548 z m 16.32442,0.248188 c -0.57487,-0.574868 -0.94801,-0.622169 -0.94801,-0.120171 0,1.069348 0.94743,2.016786 1.48211,1.482112 0.22766,-0.227658 -0.0127,-0.840531 -0.5341,-1.361941 z M 81.756075,57.47288 c 0,-0.44063 0.381792,-0.80114 0.848425,-0.80114 0.466633,0 0.625611,0.36051 0.353287,0.80114 -0.272324,0.44063 -0.654116,0.80114 -0.848424,0.80114 -0.194309,0 -0.353288,-0.36051 -0.353288,-0.80114 z m 82.116975,0 c 0.27233,-0.44063 -0.0556,-0.80114 -0.72871,-0.80114 -0.73482,0 -1.04734,-0.45997 -0.78213,-1.15113 0.25615,-0.6675 1.0029,-0.95455 1.77743,-0.68323 1.08761,0.38099 1.1497,0.26744 0.33427,-0.61138 -1.38547,-1.49319 -1.25181,-3.59856 0.32882,-5.17919 1.21775,-1.21775 1.39125,-1.22122 2.05171,-0.0411 0.3968,0.70906 0.50416,1.97387 0.23855,2.81069 -0.33585,1.05819 -0.0196,1.66853 1.03839,2.00435 1.11276,0.35317 1.41938,1.01595 1.1418,2.46803 -0.43301,2.26514 -1.78205,2.69731 -1.82047,0.5832 -0.0243,-1.33523 -0.0762,-1.33523 -1.08975,0 -1.109,1.46094 -3.35668,2.00334 -2.48991,0.60086 z M 90.933549,54.32599 c 0.25272,-0.4089 -0.233469,-0.9634 -1.080419,-1.23221 -1.723728,-0.54709 -2.876209,-2.77657 -1.914471,-3.70356 0.344915,-0.33246 1.888914,-0.96069 3.431111,-1.39607 2.116543,-0.59752 2.348826,-0.80932 0.947438,-0.86385 -1.540875,-0.06 -1.764642,-0.37875 -1.316011,-1.87483 0.754948,-2.51757 2.845438,-4.52607 3.335384,-3.20456 0.204203,0.55078 0.920575,1.00143 1.591939,1.00143 0.755893,0 1.045081,0.45755 0.759522,1.20171 -0.287826,0.75006 0.0064,1.20171 0.782195,1.20171 1.879862,0 0.861539,1.8829 -1.353016,2.50175 -1.656479,0.4629 -1.706863,0.5629 -0.341174,0.67718 1.513204,0.12662 1.502965,0.18201 -0.184134,0.99622 -0.982536,0.47417 -2.24221,1.89183 -2.799276,3.15034 -0.557073,1.25851 -1.306645,2.2882 -1.665717,2.2882 -0.359071,0 -0.446083,-0.33455 -0.193371,-0.74346 z M 155.61104,53.0166 c -1.90034,-1.09187 -3.83981,-1.7475 -4.30993,-1.45695 -0.49711,0.30723 -0.69085,0.0626 -0.46304,-0.58467 0.51992,-1.47721 4.72491,-1.13224 5.61639,0.46075 0.88914,1.58881 2.12314,1.5583 3.95301,-0.0977 1.40532,-1.27179 1.43011,-1.22093 0.58557,1.20172 -0.48503,1.39134 -1.11698,2.51449 -1.40435,2.49589 -0.28736,-0.0186 -2.07731,-0.92717 -3.97765,-2.01903 z m -2.95396,-5.15742 c -0.27233,-0.44062 -0.11335,-0.80114 0.35328,-0.80114 0.46664,0 0.84843,0.36052 0.84843,0.80114 0,0.44063 -0.15898,0.80114 -0.35329,0.80114 -0.19431,0 -0.5761,-0.36051 -0.84842,-0.80114 z m 13.68585,-3.09704 c -0.34511,-0.55839 -0.41111,-1.23162 -0.14668,-1.49606 0.717,-0.71699 1.49875,0.33752 1.1115,1.49929 -0.27137,0.8141 -0.46007,0.81347 -0.96482,-0.003 z M 111.63089,21.221236 c 1.36429,-2.136813 1.3586,-2.203138 -0.18897,-2.203138 -1.08918,0 -1.44925,-0.381414 -1.13448,-1.201712 0.54641,-1.423885 3.58413,-1.59256 4.90436,-0.272323 0.70509,0.705091 1.31133,0.463408 2.51197,-1.001427 1.44147,-1.758658 1.69696,-1.818491 2.86541,-0.671053 0.72659,0.713518 1.06249,1.833971 0.77466,2.584022 -0.68948,1.796758 -5.09236,3.896085 -6.94078,3.309417 -0.82466,-0.261733 -2.10674,0.0046 -2.84909,0.591737 -1.21561,0.961537 -1.20996,0.84871 0.057,-1.135523 z m -49.903324,0.400571 c 8e-6,-0.330471 1.261806,-1.607637 2.803995,-2.838149 3.262744,-2.603348 3.810444,-1.422966 0.684126,1.474405 -2.117304,1.962257 -3.488169,2.498219 -3.488121,1.363744 z M 125.0177,17.062526 c 0,-1.580509 1.64549,-2.475363 2.37658,-1.292437 0.44084,0.713311 0.94678,0.611341 1.95143,-0.393306 1.87487,-1.874866 2.67998,-0.751722 0.88386,1.232979 -1.68996,1.86738 -5.21187,2.173334 -5.21187,0.452764 z M 64.473053,15.395761 c 0.84909,-0.642375 1.739927,-0.971821 1.979653,-0.732102 0.502868,0.50287 -1.531863,1.9329 -2.722311,1.913268 -0.440627,-0.0073 -0.106431,-0.538791 0.742658,-1.181166 z m 17.93395,0.671642 c 0.578319,-0.231426 1.269304,-0.202964 1.535523,0.06325 0.266211,0.266213 -0.206967,0.455562 -1.051498,0.420776 -0.933289,-0.03844 -1.12312,-0.228278 -0.484025,-0.484023 z m 3.547461,-1.255297 c 0.179416,-0.550784 1.381128,-1.507722 2.670468,-2.126528 1.289349,-0.618807 2.524525,-1.36613 2.744838,-1.66072 0.220314,-0.294589 1.071607,-0.783794 1.891767,-1.087121 1.146417,-0.423991 1.377955,-0.256406 1.001427,0.724816 -0.269376,0.701976 -0.48977,1.967862 -0.48977,2.813079 0,1.764856 -2.330368,2.085113 -3.895373,0.535333 -0.80997,-0.802094 -1.168721,-0.72236 -1.802319,0.400571 -0.901124,1.597078 -2.616303,1.920999 -2.121038,0.40057 z"
     id="path12" />
</svg>
